<svg width="24" height="24" viewBox="0 0 24 24" fill="none" xmlns="http://www.w3.org/2000/svg">
<path d="M2.7 13.92C2.98099 14.2573 3.3326 14.5289 3.73001 14.7155C4.12743 14.9021 4.56095 14.9992 5 15H9.56L9 16.43C8.76707 17.0561 8.6895 17.7294 8.77394 18.392C8.85838 19.0547 9.10231 19.687 9.48481 20.2347C9.86732 20.7824 10.377 21.2292 10.9701 21.5366C11.5631 21.8441 12.222 22.0031 12.89 22C13.0824 21.9996 13.2705 21.9437 13.4319 21.839C13.5933 21.7344 13.7211 21.5854 13.8 21.41L16.65 15H19C19.7956 15 20.5587 14.6839 21.1213 14.1213C21.6839 13.5587 22 12.7956 22 12L22 4.99996C22 4.20431 21.6839 3.44124 21.1213 2.87864C20.5587 2.31603 19.7956 1.99996 19 1.99996L6.27 1.99996C5.56819 2.00019 4.88867 2.24647 4.34968 2.69593C3.81068 3.1454 3.44633 3.76961 3.32 4.45996L2.05 11.46C1.97145 11.8926 1.98896 12.3372 2.10128 12.7623C2.2136 13.1874 2.418 13.5826 2.7 13.92ZM17 3.99996H19C19.2652 3.99996 19.5196 4.10531 19.7071 4.29285C19.8946 4.48038 20 4.73474 20 4.99996L20 12C20 12.2652 19.8946 12.5195 19.7071 12.7071C19.5196 12.8946 19.2652 13 19 13H17V3.99996ZM4 11.82L5.27 4.81996C5.3126 4.587 5.43649 4.37672 5.61961 4.22655C5.80274 4.07639 6.03321 3.99609 6.27 3.99996L15 3.99996L15 13.79L12.28 19.91C12 19.8283 11.74 19.6895 11.5163 19.5024C11.2927 19.3152 11.1103 19.0837 10.9806 18.8225C10.8509 18.5612 10.7768 18.276 10.7629 17.9847C10.7491 17.6933 10.7957 17.4023 10.9 17.13L11.43 15.7C11.5429 15.3977 11.5811 15.0726 11.5411 14.7524C11.5012 14.4322 11.3844 14.1265 11.2007 13.8612C11.017 13.596 10.7718 13.3791 10.4861 13.2291C10.2004 13.0791 9.88266 13.0005 9.56 13H5C4.85309 13.0002 4.70793 12.9681 4.57485 12.9058C4.44176 12.8436 4.32402 12.7528 4.23 12.64C4.13367 12.5286 4.0631 12.3974 4.02334 12.2557C3.98359 12.1139 3.97561 11.9651 4 11.82Z" fill="black"/>
</svg>
