<svg width="24" height="24" viewBox="0 0 24 24" fill="none" xmlns="http://www.w3.org/2000/svg">
<path fill-rule="evenodd" clip-rule="evenodd" d="M11.8026 4.52051L11.8026 4.52052L11.8026 4.52051ZM12 4.6181L19.7639 8.50006L18.5722 9.09596C18.5596 9.10193 18.5471 9.10815 18.5348 9.11463L12 12.382L5.46521 9.11463C5.4529 9.10815 5.44044 9.10192 5.42784 9.09595L4.23607 8.50006L12 4.6181ZM4 10.6181L1.55279 9.39449C1.214 9.2251 1 8.87884 1 8.50006C1 8.12129 1.214 7.77503 1.55279 7.60564L11.195 2.78452C11.2024 2.78082 11.211 2.77646 11.2206 2.77155C11.3139 2.72394 11.507 2.62541 11.7234 2.5848C11.9062 2.55051 12.0938 2.55051 12.2766 2.5848C12.493 2.62541 12.6861 2.72394 12.7794 2.77155C12.789 2.77646 12.7976 2.78082 12.805 2.78452L22.4472 7.60564C22.786 7.77503 23 8.12129 23 8.50006C23 8.87884 22.786 9.2251 22.4472 9.39449L20 10.6181V16.0112C20 16.0358 20.0001 16.061 20.0002 16.0869C20.0012 16.3629 20.0026 16.7098 19.8907 17.0342C19.794 17.3144 19.6363 17.5697 19.4288 17.7815L18.7144 17.0817L19.4288 17.7815C19.1888 18.0266 18.8779 18.1805 18.6305 18.303C18.6074 18.3145 18.5847 18.3257 18.5628 18.3367L13.1628 21.0367C13.1449 21.0456 13.1266 21.0549 13.1078 21.0643C12.9053 21.1664 12.6503 21.2949 12.3688 21.3477C12.1251 21.3935 11.8749 21.3935 11.6312 21.3477C11.3497 21.2949 11.0947 21.1664 10.8922 21.0643C10.8734 21.0549 10.8551 21.0456 10.8372 21.0367L5.43725 18.3367C5.41528 18.3257 5.39265 18.3145 5.36946 18.303C5.12211 18.1805 4.81122 18.0266 4.57116 17.7815C4.36373 17.5697 4.20597 17.3144 4.10931 17.0342C3.99744 16.7098 3.99876 16.3629 3.99981 16.0869C3.9999 16.061 4 16.0358 4 16.0112V10.6181ZM6 11.6181V16.0112C6 16.2028 6.00045 16.3013 6.00489 16.3726C6.00503 16.3747 6.00516 16.3768 6.00529 16.3788C6.00699 16.3798 6.00876 16.3808 6.01062 16.3819C6.0724 16.4177 6.16032 16.4622 6.33167 16.5479L5.91886 17.3735L6.33167 16.5479L11.7317 19.2479C11.872 19.318 11.943 19.3532 11.9958 19.3761C11.9973 19.3768 11.9987 19.3774 12 19.378C12.0013 19.3774 12.0027 19.3768 12.0042 19.3761C12.057 19.3532 12.128 19.318 12.2683 19.2479L17.6683 16.5479C17.8397 16.4622 17.9276 16.4177 17.9894 16.3819C17.9912 16.3808 17.993 16.3798 17.9947 16.3788C17.9948 16.3768 17.995 16.3747 17.9951 16.3726C17.9996 16.3013 18 16.2028 18 16.0112V11.6181L12.805 14.2156C12.7976 14.2193 12.789 14.2237 12.7794 14.2286C12.6861 14.2762 12.493 14.3747 12.2766 14.4153C12.0938 14.4496 11.9062 14.4496 11.7234 14.4153C11.507 14.3747 11.3139 14.2762 11.2206 14.2286C11.211 14.2237 11.2024 14.2193 11.195 14.2156L6 11.6181ZM11.8026 12.4796C11.8024 12.4797 11.8024 12.4797 11.8026 12.4796L11.8026 12.4796ZM12.1974 12.4796C12.1976 12.4797 12.1976 12.4797 12.1974 12.4796L12.1974 12.4796ZM12.1974 4.52052L12.1974 4.52051L12.1974 4.52052Z" fill="black"/>
</svg>
