<svg width="24" height="24" viewBox="0 0 24 24" fill="none" xmlns="http://www.w3.org/2000/svg">
<path fill-rule="evenodd" clip-rule="evenodd" d="M19.7166 4.21147L19.7158 4.21068L19.0091 4.91818L19.7166 4.21147ZM10 12C10 10.8954 10.8954 10 12 10C13.1046 10 14 10.8954 14 12C14 13.1046 13.1046 14 12 14C10.8954 14 10 13.1046 10 12ZM12 8C9.79086 8 8 9.79086 8 12C8 14.2091 9.79086 16 12 16C14.2091 16 16 14.2091 16 12C16 9.79086 14.2091 8 12 8Z" fill="black"/>
<path fill-rule="evenodd" clip-rule="evenodd" d="M12 1C11.2526 1 10.5358 1.29691 10.0072 1.82543C9.47873 2.35394 9.18182 3.07075 9.18182 3.81818V3.84119V3.97022C9.18114 4.06722 9.15227 4.16193 9.0987 4.24282C9.0657 4.29266 9.0242 4.33592 8.97637 4.37078L8.96373 4.37377C8.90648 4.38769 8.85042 4.40668 8.79624 4.43059C8.70484 4.47093 8.60345 4.48296 8.50515 4.46514C8.40817 4.44755 8.31858 4.40171 8.24761 4.3334L8.19841 4.2842C7.93668 4.02217 7.62586 3.81431 7.28374 3.67248C6.94162 3.53066 6.5749 3.45766 6.20455 3.45766C5.83419 3.45766 5.46747 3.53066 5.12535 3.67248C4.7834 3.81423 4.47273 4.02196 4.21108 4.2838C3.94924 4.54545 3.74151 4.85613 3.59975 5.19808C3.45793 5.5402 3.38493 5.90692 3.38493 6.27727C3.38493 6.64763 3.45793 7.01435 3.59975 7.35647C3.74158 7.69859 3.94944 8.0094 4.21147 8.27114L4.26067 8.32034C4.32898 8.39131 4.37483 8.4809 4.39241 8.57787C4.41024 8.67618 4.3982 8.77756 4.35786 8.86896C4.34936 8.88824 4.34146 8.90777 4.33419 8.92755C4.29956 9.02171 4.2374 9.10327 4.1558 9.16164C4.07651 9.21835 3.98244 9.2506 3.88517 9.25455H3.81818C3.07075 9.25455 2.35394 9.55146 1.82543 10.08C1.29691 10.6085 1 11.3253 1 12.0727C1 12.8202 1.29691 13.537 1.82543 14.0655C2.35394 14.594 3.07075 14.8909 3.81818 14.8909H3.97015C4.06717 14.8916 4.16191 14.9204 4.24282 14.974C4.32412 15.0279 4.38785 15.1043 4.42626 15.194L4.43059 15.2038C4.45096 15.2499 4.46412 15.2986 4.46985 15.3482C4.47547 15.3968 4.47396 15.4462 4.46514 15.4949C4.44756 15.5918 4.40172 15.6814 4.33343 15.7524L4.2842 15.8016C4.2842 15.8016 3.57875 16.7801 3.5 17.5C3.33098 19.0451 4.2842 19.7893 4.2842 19.7893C4.54577 20.051 4.8563 20.2586 5.19808 20.4002C5.5402 20.5421 5.90692 20.6151 6.27727 20.6151C6.64762 20.6151 7.01434 20.5421 7.35647 20.4002C7.69859 20.2584 8.0094 20.0506 8.27114 19.7885L8.32032 19.7394C8.39129 19.671 8.48089 19.6252 8.57787 19.6076C8.67618 19.5898 8.77757 19.6018 8.86896 19.6421C8.88824 19.6506 8.90777 19.6585 8.92755 19.6658C9.02171 19.7004 9.10327 19.7626 9.16164 19.8442C9.21834 19.9235 9.2506 20.0176 9.25455 20.1148V20.1818C9.25455 20.9292 9.55146 21.6461 10.08 22.1746C10.6085 22.7031 11.3253 23 12.0727 23C12.8202 23 13.537 22.7031 14.0655 22.1746C14.594 21.6461 14.8909 20.9292 14.8909 20.1818V20.0298C14.8916 19.9328 14.9204 19.8381 14.974 19.7572C15.0279 19.6759 15.1043 19.6122 15.194 19.5737L15.2038 19.5694C15.2952 19.5291 15.3965 19.517 15.4949 19.5349C15.5918 19.5524 15.6814 19.5983 15.7524 19.6666L15.802 19.7162C16.0636 19.978 16.3743 20.1858 16.7163 20.3275C17.0584 20.4693 17.4251 20.5423 17.7955 20.5423C18.1658 20.5423 18.5325 20.4693 18.8747 20.3275C19.2166 20.1858 19.5273 19.978 19.7889 19.7162C20.0508 19.4545 20.2585 19.1439 20.4002 18.8019C20.5421 18.4598 20.6151 18.0931 20.6151 17.7227C20.6151 17.3524 20.5421 16.9857 20.4002 16.6435C20.2584 16.3014 20.0506 15.9906 19.7885 15.7289L19.7393 15.6797C19.671 15.6087 19.6252 15.5191 19.6076 15.4221C19.5898 15.3238 19.6019 15.2225 19.6422 15.1311L19.6464 15.1212C19.6848 15.0316 19.7486 14.9551 19.8299 14.9013C19.9108 14.8477 20.0056 14.8188 20.1026 14.8182H20.1818C20.9292 14.8182 21.6461 14.5213 22.1746 13.9928C22.7031 13.4642 23 12.7474 23 12C23 11.2526 22.7031 10.5358 22.1746 10.0072C21.6461 9.47873 20.9292 9.18182 20.1818 9.18182H20.0298C19.9328 9.18114 19.8381 9.15227 19.7572 9.0987C19.7073 9.06569 19.6641 9.02419 19.6292 8.97636C19.6151 8.91473 19.5951 8.8544 19.5694 8.79624C19.5291 8.70484 19.517 8.60345 19.5349 8.50515C19.5524 8.40817 19.5983 8.31858 19.6666 8.24761L19.7162 8.19801C19.978 7.93636 20.1858 7.62569 20.3275 7.28374C20.4693 6.94162 20.5423 6.5749 20.5423 6.20455C20.5423 5.83419 20.4693 5.46747 20.3275 5.12535C20.1858 4.78357 19.9782 4.47304 19.7166 4.21147L19.0091 4.91818L19.7158 4.21068L19.7166 4.21147C19.4549 3.94945 19.144 3.74158 18.8019 3.59975C18.4598 3.45793 18.0931 3.38493 17.7227 3.38493C17.3524 3.38493 16.9857 3.45793 16.6435 3.59975C16.3014 3.74158 15.9906 3.94944 15.7289 4.21147L15.6796 4.2607C15.6087 4.32899 15.5191 4.37483 15.4221 4.39241C15.3238 4.41024 15.2225 4.39815 15.1311 4.35781L15.1212 4.35359C15.0316 4.31517 14.9551 4.25139 14.9013 4.17009C14.8477 4.08918 14.8188 3.99444 14.8182 3.89743V3.81818C14.8182 3.07075 14.5213 2.35394 13.9928 1.82543C13.4642 1.29691 12.7474 1 12 1ZM12 3C11.783 3 11.5749 3.0862 11.4215 3.23964C11.268 3.39308 11.1818 3.60119 11.1818 3.81818V3.97672C11.1799 4.46427 11.0354 4.94062 10.7662 5.34712C10.497 5.75362 10.1148 6.07253 9.66666 6.26459C9.58505 6.29957 9.49934 6.32344 9.41182 6.33573C9.12702 6.43428 8.82716 6.48036 8.52683 6.47225C8.40038 6.46883 8.27385 6.45581 8.14833 6.43305L8.12246 6.42822C7.64092 6.33566 7.19701 6.10348 6.84619 5.76032L6.8383 5.7526L6.7838 5.69802C6.70782 5.62194 6.61719 5.5612 6.51786 5.52003C6.41853 5.47885 6.31207 5.45766 6.20455 5.45766C6.09702 5.45766 5.99056 5.47885 5.89123 5.52003C5.7919 5.5612 5.70167 5.62155 5.62568 5.69762L5.6249 5.69841C5.54882 5.7744 5.48848 5.86463 5.4473 5.96396C5.40613 6.06328 5.38493 6.16975 5.38493 6.27727C5.38493 6.38479 5.40613 6.49126 5.4473 6.59059C5.48848 6.68991 5.54882 6.78015 5.6249 6.85614L5.68763 6.91887C6.03693 7.27596 6.2712 7.72955 6.36032 8.22106C6.44756 8.70219 6.39175 9.19811 6.20017 9.6475C6.025 10.1058 5.71874 10.5027 5.31929 10.7884C4.91127 11.0802 4.42489 11.2425 3.92338 11.2543L3.9 11.2545H3.81818C3.60119 11.2545 3.39308 11.3407 3.23964 11.4942C3.0862 11.6476 3 11.8557 3 12.0727C3 12.2897 3.0862 12.4978 3.23964 12.6513C3.39308 12.8047 3.60119 12.8909 3.81818 12.8909H3.97672C4.45132 12.8928 4.9153 13.0298 5.31457 13.2853C5.32547 13.2923 5.33632 13.2994 5.34712 13.3065C5.65367 13.5095 5.91041 13.7768 6.1005 14.0882C6.16155 14.1882 6.21572 14.2927 6.26247 14.4011C6.46243 14.8568 6.52185 15.3619 6.43305 15.8517C6.34393 16.3432 6.10962 16.7967 5.76032 17.1538L5.7526 17.1617L5.69801 17.2162C5.62194 17.2922 5.5612 17.3828 5.52003 17.4821C5.47885 17.5815 5.45766 17.6879 5.45766 17.7955C5.45766 17.903 5.47885 18.0094 5.52003 18.1088C5.5612 18.2081 5.62155 18.2983 5.69762 18.3743L5.69841 18.3751C5.77439 18.4512 5.86463 18.5115 5.96396 18.5527C6.06328 18.5939 6.16975 18.6151 6.27727 18.6151C6.3848 18.6151 6.49126 18.5939 6.59059 18.5527C6.68991 18.5115 6.78015 18.4512 6.85614 18.3751L6.91887 18.3124C7.27596 17.9631 7.72955 17.7288 8.22106 17.6397C8.70219 17.5524 9.19812 17.6082 9.64751 17.7998C10.1058 17.975 10.5027 18.2813 10.7884 18.6807C11.0802 19.0887 11.2425 19.5751 11.2543 20.0766L11.2545 20.1V20.1818C11.2545 20.3988 11.3407 20.6069 11.4942 20.7604C11.6476 20.9138 11.8557 21 12.0727 21C12.2897 21 12.4978 20.9138 12.6513 20.7604C12.8047 20.6069 12.8909 20.3988 12.8909 20.1818V20.0273L12.8909 20.0233C12.8929 19.5357 13.0373 19.0594 13.3065 18.6529C13.5747 18.2479 13.9551 17.9298 14.4011 17.7375C14.8568 17.5376 15.3619 17.4781 15.8517 17.5669C16.3432 17.6561 16.7967 17.8904 17.1538 18.2397L17.1617 18.2474L17.2162 18.302C17.2922 18.3781 17.3828 18.4388 17.4821 18.48C17.5815 18.5211 17.6879 18.5423 17.7955 18.5423C17.903 18.5423 18.0094 18.5211 18.1088 18.48C18.2081 18.4388 18.2983 18.3785 18.3743 18.3024L18.3751 18.3016C18.4512 18.2256 18.5115 18.1354 18.5527 18.036C18.5939 17.9367 18.6151 17.8303 18.6151 17.7227C18.6151 17.6152 18.5939 17.5087 18.5527 17.4094C18.5115 17.3101 18.4512 17.2198 18.3751 17.1439L18.3124 17.0811C17.9631 16.724 17.7288 16.2705 17.6397 15.7789C17.5509 15.2892 17.6103 14.7841 17.8103 14.3284C18.0025 13.8824 18.3206 13.502 18.7256 13.2338C19.1321 12.9646 19.6085 12.8201 20.096 12.8182L20.1 12.8182L20.1818 12.8182C20.3988 12.8182 20.6069 12.732 20.7604 12.5785C20.9138 12.4251 21 12.217 21 12C21 11.783 20.9138 11.5749 20.7604 11.4215C20.6069 11.268 20.3988 11.1818 20.1818 11.1818H20.0273L20.0233 11.1818C19.5357 11.1799 19.0594 11.0354 18.6529 10.7662C18.2464 10.497 17.9275 10.1148 17.7354 9.66666C17.7004 9.58505 17.6766 9.49934 17.6643 9.41182C17.5242 9.0071 17.4901 8.57198 17.5669 8.14833C17.6561 7.65682 17.8904 7.20328 18.2397 6.84619L18.2474 6.83831L18.302 6.78381C18.378 6.70782 18.4388 6.61718 18.48 6.51786C18.5211 6.41854 18.5423 6.31207 18.5423 6.20455C18.5423 6.09702 18.5211 5.99055 18.48 5.89123C18.4388 5.79191 18.3785 5.70167 18.3024 5.62568L18.3016 5.6249C18.2256 5.54882 18.1354 5.48847 18.036 5.4473C17.9367 5.40613 17.8302 5.38493 17.7227 5.38493C17.6152 5.38493 17.5087 5.40613 17.4094 5.4473C17.3101 5.48848 17.2198 5.54883 17.1439 5.6249L17.0811 5.68763C16.724 6.03693 16.2705 6.2712 15.7789 6.36032C15.2892 6.44913 14.7841 6.38971 14.3284 6.18974C13.8824 5.99745 13.502 5.67939 13.2338 5.27439C12.9646 4.86789 12.8201 4.39154 12.8182 3.90399L12.8182 3.9V3.81818C12.8182 3.60119 12.732 3.39308 12.5785 3.23964C12.4251 3.0862 12.217 3 12 3Z" fill="black"/>
</svg>
